<mxfile host="app.diagrams.net" modified="2023-04-03T04:43:37.694Z" agent="Mozilla/5.0 (Windows NT 10.0; Win64; x64) AppleWebKit/537.36 (KHTML, like Gecko) Chrome/111.0.0.0 Safari/537.36" etag="WPkWlW4W2zI-aPyJOX3j" version="21.1.2" type="github">
  <diagram name="第 1 页" id="JghctW-HphQdAZXUlrN_">
    <mxGraphModel dx="1047" dy="538" grid="1" gridSize="10" guides="1" tooltips="1" connect="1" arrows="1" fold="1" page="1" pageScale="1" pageWidth="827" pageHeight="1169" math="0" shadow="0">
      <root>
        <mxCell id="0" />
        <mxCell id="1" parent="0" />
        <mxCell id="3FmBX7TSMXU1L6uPW0nA-28" value="" style="edgeStyle=orthogonalEdgeStyle;rounded=0;orthogonalLoop=1;jettySize=auto;html=1;" edge="1" parent="1" source="3FmBX7TSMXU1L6uPW0nA-1" target="3FmBX7TSMXU1L6uPW0nA-3">
          <mxGeometry relative="1" as="geometry" />
        </mxCell>
        <mxCell id="3FmBX7TSMXU1L6uPW0nA-1" value="注册扫描包" style="rounded=1;whiteSpace=wrap;html=1;absoluteArcSize=1;arcSize=14;strokeWidth=2;" vertex="1" parent="1">
          <mxGeometry x="300" y="60" width="100" height="100" as="geometry" />
        </mxCell>
        <mxCell id="3FmBX7TSMXU1L6uPW0nA-2" value="@EntityScan有关&lt;br&gt;EntityScanPackages#register" style="strokeWidth=2;html=1;shape=mxgraph.flowchart.document2;whiteSpace=wrap;size=0.25;align=left;" vertex="1" parent="1">
          <mxGeometry x="480" y="60" width="210" height="60" as="geometry" />
        </mxCell>
        <mxCell id="3FmBX7TSMXU1L6uPW0nA-29" value="" style="edgeStyle=orthogonalEdgeStyle;rounded=0;orthogonalLoop=1;jettySize=auto;html=1;" edge="1" parent="1" source="3FmBX7TSMXU1L6uPW0nA-3" target="3FmBX7TSMXU1L6uPW0nA-5">
          <mxGeometry relative="1" as="geometry" />
        </mxCell>
        <mxCell id="3FmBX7TSMXU1L6uPW0nA-3" value="产生LocalContainerEntityManagerFactoryBean实例" style="rounded=1;whiteSpace=wrap;html=1;absoluteArcSize=1;arcSize=14;strokeWidth=2;" vertex="1" parent="1">
          <mxGeometry x="300" y="200" width="100" height="100" as="geometry" />
        </mxCell>
        <mxCell id="3FmBX7TSMXU1L6uPW0nA-4" value="JpaBaseConfiguration#entityManagerFactory" style="strokeWidth=2;html=1;shape=mxgraph.flowchart.document2;whiteSpace=wrap;size=0.25;" vertex="1" parent="1">
          <mxGeometry x="480" y="180" width="250" height="60" as="geometry" />
        </mxCell>
        <mxCell id="3FmBX7TSMXU1L6uPW0nA-30" value="" style="edgeStyle=orthogonalEdgeStyle;rounded=0;orthogonalLoop=1;jettySize=auto;html=1;" edge="1" parent="1" source="3FmBX7TSMXU1L6uPW0nA-5" target="3FmBX7TSMXU1L6uPW0nA-7">
          <mxGeometry relative="1" as="geometry" />
        </mxCell>
        <mxCell id="3FmBX7TSMXU1L6uPW0nA-5" value="开始构建jpa" style="rounded=1;whiteSpace=wrap;html=1;absoluteArcSize=1;arcSize=14;strokeWidth=2;" vertex="1" parent="1">
          <mxGeometry x="300" y="340" width="100" height="100" as="geometry" />
        </mxCell>
        <mxCell id="3FmBX7TSMXU1L6uPW0nA-6" value="localContainerEntityManagerFactoryBean.afterPropertiesSet()" style="strokeWidth=2;html=1;shape=mxgraph.flowchart.document2;whiteSpace=wrap;size=0.25;fontColor=#FF3333;" vertex="1" parent="1">
          <mxGeometry x="480" y="330" width="350" height="60" as="geometry" />
        </mxCell>
        <mxCell id="3FmBX7TSMXU1L6uPW0nA-13" value="" style="edgeStyle=orthogonalEdgeStyle;rounded=0;orthogonalLoop=1;jettySize=auto;html=1;" edge="1" parent="1" source="3FmBX7TSMXU1L6uPW0nA-7" target="3FmBX7TSMXU1L6uPW0nA-9">
          <mxGeometry relative="1" as="geometry" />
        </mxCell>
        <mxCell id="3FmBX7TSMXU1L6uPW0nA-31" value="" style="edgeStyle=orthogonalEdgeStyle;rounded=0;orthogonalLoop=1;jettySize=auto;html=1;" edge="1" parent="1" source="3FmBX7TSMXU1L6uPW0nA-7" target="3FmBX7TSMXU1L6uPW0nA-15">
          <mxGeometry relative="1" as="geometry" />
        </mxCell>
        <mxCell id="3FmBX7TSMXU1L6uPW0nA-7" value="准备持久化单元" style="rounded=1;whiteSpace=wrap;html=1;absoluteArcSize=1;arcSize=14;strokeWidth=2;" vertex="1" parent="1">
          <mxGeometry x="300" y="490" width="100" height="100" as="geometry" />
        </mxCell>
        <mxCell id="3FmBX7TSMXU1L6uPW0nA-14" value="" style="edgeStyle=orthogonalEdgeStyle;rounded=0;orthogonalLoop=1;jettySize=auto;html=1;" edge="1" parent="1" source="3FmBX7TSMXU1L6uPW0nA-9" target="3FmBX7TSMXU1L6uPW0nA-10">
          <mxGeometry relative="1" as="geometry" />
        </mxCell>
        <mxCell id="3FmBX7TSMXU1L6uPW0nA-9" value="&lt;div&gt;扫描给定的package&lt;/div&gt;" style="rounded=1;whiteSpace=wrap;html=1;absoluteArcSize=1;arcSize=14;strokeWidth=2;" vertex="1" parent="1">
          <mxGeometry x="470" y="490" width="100" height="100" as="geometry" />
        </mxCell>
        <mxCell id="3FmBX7TSMXU1L6uPW0nA-10" value="&lt;div&gt;&lt;span style=&quot;background-color: initial;&quot;&gt;package绝对路径&lt;/span&gt;&lt;/div&gt;" style="rounded=1;whiteSpace=wrap;html=1;absoluteArcSize=1;arcSize=14;strokeWidth=2;" vertex="1" parent="1">
          <mxGeometry x="640" y="490" width="100" height="100" as="geometry" />
        </mxCell>
        <mxCell id="3FmBX7TSMXU1L6uPW0nA-11" value="DefaultPersistenceUnitManager#scanPackage" style="strokeWidth=2;html=1;shape=mxgraph.flowchart.document2;whiteSpace=wrap;size=0.25;" vertex="1" parent="1">
          <mxGeometry x="490" y="440" width="270" height="60" as="geometry" />
        </mxCell>
        <mxCell id="3FmBX7TSMXU1L6uPW0nA-12" value="PathMatchingResourcePatternResolver#doFindAllClassPathResources" style="strokeWidth=2;html=1;shape=mxgraph.flowchart.document2;whiteSpace=wrap;size=0.25;" vertex="1" parent="1">
          <mxGeometry x="660" y="555" width="450" height="60" as="geometry" />
        </mxCell>
        <mxCell id="3FmBX7TSMXU1L6uPW0nA-32" value="" style="edgeStyle=orthogonalEdgeStyle;rounded=0;orthogonalLoop=1;jettySize=auto;html=1;" edge="1" parent="1" source="3FmBX7TSMXU1L6uPW0nA-15" target="3FmBX7TSMXU1L6uPW0nA-17">
          <mxGeometry relative="1" as="geometry" />
        </mxCell>
        <mxCell id="3FmBX7TSMXU1L6uPW0nA-15" value="查看class是否有注解entiry" style="rounded=1;whiteSpace=wrap;html=1;absoluteArcSize=1;arcSize=14;strokeWidth=2;" vertex="1" parent="1">
          <mxGeometry x="300" y="660" width="100" height="100" as="geometry" />
        </mxCell>
        <mxCell id="3FmBX7TSMXU1L6uPW0nA-16" value="&lt;div&gt;Embeddable MappedSuperclass Converter&lt;/div&gt;&lt;div&gt;DefaultPersistenceUnitManager#matchesFilter&lt;/div&gt;&lt;div&gt;AnnotationTypeFilter#matchSelf&lt;/div&gt;" style="strokeWidth=2;html=1;shape=mxgraph.flowchart.document2;whiteSpace=wrap;size=0.25;align=left;" vertex="1" parent="1">
          <mxGeometry x="480" y="650" width="270" height="60" as="geometry" />
        </mxCell>
        <mxCell id="3FmBX7TSMXU1L6uPW0nA-26" value="" style="edgeStyle=orthogonalEdgeStyle;rounded=0;orthogonalLoop=1;jettySize=auto;html=1;" edge="1" parent="1" source="3FmBX7TSMXU1L6uPW0nA-17" target="3FmBX7TSMXU1L6uPW0nA-19">
          <mxGeometry relative="1" as="geometry" />
        </mxCell>
        <mxCell id="3FmBX7TSMXU1L6uPW0nA-33" value="" style="edgeStyle=orthogonalEdgeStyle;rounded=0;orthogonalLoop=1;jettySize=auto;html=1;" edge="1" parent="1" source="3FmBX7TSMXU1L6uPW0nA-17" target="3FmBX7TSMXU1L6uPW0nA-27">
          <mxGeometry relative="1" as="geometry" />
        </mxCell>
        <mxCell id="3FmBX7TSMXU1L6uPW0nA-17" value="createContainerEntityManagerFactory" style="rounded=1;whiteSpace=wrap;html=1;absoluteArcSize=1;arcSize=14;strokeWidth=2;" vertex="1" parent="1">
          <mxGeometry x="300" y="830" width="100" height="100" as="geometry" />
        </mxCell>
        <mxCell id="3FmBX7TSMXU1L6uPW0nA-18" value="SpringHibernateJpaPersistenceProvider#createContainerEntityManagerFactory" style="strokeWidth=2;html=1;shape=mxgraph.flowchart.document2;whiteSpace=wrap;size=0.25;" vertex="1" parent="1">
          <mxGeometry x="480" y="790" width="480" height="60" as="geometry" />
        </mxCell>
        <mxCell id="3FmBX7TSMXU1L6uPW0nA-24" value="" style="edgeStyle=orthogonalEdgeStyle;rounded=0;orthogonalLoop=1;jettySize=auto;html=1;" edge="1" parent="1" source="3FmBX7TSMXU1L6uPW0nA-19" target="3FmBX7TSMXU1L6uPW0nA-21">
          <mxGeometry relative="1" as="geometry" />
        </mxCell>
        <mxCell id="3FmBX7TSMXU1L6uPW0nA-19" value="构建metadata" style="rounded=1;whiteSpace=wrap;html=1;absoluteArcSize=1;arcSize=14;strokeWidth=2;" vertex="1" parent="1">
          <mxGeometry x="490" y="870" width="100" height="100" as="geometry" />
        </mxCell>
        <mxCell id="3FmBX7TSMXU1L6uPW0nA-20" value="EntityManagerFactoryBuilderImpl#metadata" style="strokeWidth=2;html=1;shape=mxgraph.flowchart.document2;whiteSpace=wrap;size=0.25;" vertex="1" parent="1">
          <mxGeometry x="550" y="850" width="245" height="60" as="geometry" />
        </mxCell>
        <mxCell id="3FmBX7TSMXU1L6uPW0nA-25" value="" style="edgeStyle=orthogonalEdgeStyle;rounded=0;orthogonalLoop=1;jettySize=auto;html=1;" edge="1" parent="1" source="3FmBX7TSMXU1L6uPW0nA-21" target="3FmBX7TSMXU1L6uPW0nA-23">
          <mxGeometry relative="1" as="geometry" />
        </mxCell>
        <mxCell id="3FmBX7TSMXU1L6uPW0nA-21" value="构建运行时需要的信息" style="rounded=1;whiteSpace=wrap;html=1;absoluteArcSize=1;arcSize=14;strokeWidth=2;" vertex="1" parent="1">
          <mxGeometry x="650" y="920" width="100" height="100" as="geometry" />
        </mxCell>
        <mxCell id="3FmBX7TSMXU1L6uPW0nA-22" value="&lt;div&gt;如type定义、id生成器、entity结构(如AnnotationBinder#bindClass bindQuery)、resultMapping、&lt;/div&gt;&lt;div style=&quot;&quot;&gt;MetadataBuildingProcess#complete&lt;/div&gt;" style="strokeWidth=2;html=1;shape=mxgraph.flowchart.document2;whiteSpace=wrap;size=0.25;align=left;" vertex="1" parent="1">
          <mxGeometry x="720" y="900" width="270" height="60" as="geometry" />
        </mxCell>
        <mxCell id="3FmBX7TSMXU1L6uPW0nA-23" value="创建sessionFactory" style="rounded=1;whiteSpace=wrap;html=1;absoluteArcSize=1;arcSize=14;strokeWidth=2;" vertex="1" parent="1">
          <mxGeometry x="830" y="970" width="100" height="100" as="geometry" />
        </mxCell>
        <mxCell id="3FmBX7TSMXU1L6uPW0nA-27" value="创建EntityManagerFactory代理" style="rounded=1;whiteSpace=wrap;html=1;absoluteArcSize=1;arcSize=14;strokeWidth=2;" vertex="1" parent="1">
          <mxGeometry x="300" y="1010" width="100" height="100" as="geometry" />
        </mxCell>
      </root>
    </mxGraphModel>
  </diagram>
</mxfile>
